<?xml version="1.0" encoding="UTF-8"?>
<svg xmlns="http://www.w3.org/2000/svg" xmlns:xlink="http://www.w3.org/1999/xlink" width="600" height="400" viewBox="0 0 600 400">
<path fill-rule="nonzero" fill="rgb(100%, 0%, 0%)" fill-opacity="1" stroke-width="0.05" stroke-linecap="butt" stroke-linejoin="miter" stroke="rgb(0%, 0%, 0%)" stroke-opacity="1" stroke-miterlimit="10" d="M 1 1 L 0 0 L 0 3 L 1 3 Z M 1 1 " transform="matrix(40, 0, 0, 40, 0, 0)"/>
<path fill-rule="nonzero" fill="rgb(0%, 100%, 0%)" fill-opacity="1" stroke-width="0.05" stroke-linecap="butt" stroke-linejoin="miter" stroke="rgb(0%, 0%, 0%)" stroke-opacity="1" stroke-miterlimit="10" d="M 3 3 L 1 1 L 1 3 Z M 3 3 " transform="matrix(40, 0, 0, 40, 0, 0)"/>
<path fill-rule="nonzero" fill="rgb(0%, 0%, 100%)" fill-opacity="1" stroke-width="0.05" stroke-linecap="butt" stroke-linejoin="miter" stroke="rgb(0%, 0%, 0%)" stroke-opacity="1" stroke-miterlimit="10" d="M 1 1 L 0 0 L 1 0 Z M 1 1 " transform="matrix(40, 0, 0, 40, 0, 0)"/>
<path fill-rule="nonzero" fill="rgb(100%, 100%, 0%)" fill-opacity="1" stroke-width="0.05" stroke-linecap="butt" stroke-linejoin="miter" stroke="rgb(0%, 0%, 0%)" stroke-opacity="1" stroke-miterlimit="10" d="M 2 0 L 1 0 L 1 1 L 2 2 Z M 2 0 " transform="matrix(40, 0, 0, 40, 0, 0)"/>
<path fill-rule="nonzero" fill="rgb(0%, 100%, 100%)" fill-opacity="1" stroke-width="0.05" stroke-linecap="butt" stroke-linejoin="miter" stroke="rgb(0%, 0%, 0%)" stroke-opacity="1" stroke-miterlimit="10" d="M 3 0 L 2 0 L 2 2 L 3 3 Z M 3 0 " transform="matrix(40, 0, 0, 40, 0, 0)"/>
<path fill-rule="nonzero" fill="rgb(100%, 0%, 0%)" fill-opacity="1" stroke-width="0.05" stroke-linecap="butt" stroke-linejoin="miter" stroke="rgb(0%, 0%, 0%)" stroke-opacity="1" stroke-miterlimit="10" d="M 4 1 L 3 0 L 3 3 L 4 3 Z M 4 1 " transform="matrix(40, 0, 0, 40, 0, 0)"/>
<path fill-rule="nonzero" fill="rgb(0%, 100%, 0%)" fill-opacity="1" stroke-width="0.05" stroke-linecap="butt" stroke-linejoin="miter" stroke="rgb(0%, 0%, 0%)" stroke-opacity="1" stroke-miterlimit="10" d="M 5 2 L 4 1 L 4 3 L 5 3 Z M 5 2 " transform="matrix(40, 0, 0, 40, 0, 0)"/>
<path fill-rule="nonzero" fill="rgb(0%, 0%, 100%)" fill-opacity="1" stroke-width="0.05" stroke-linecap="butt" stroke-linejoin="miter" stroke="rgb(0%, 0%, 0%)" stroke-opacity="1" stroke-miterlimit="10" d="M 6 3 L 5 2 L 5 3 Z M 6 3 " transform="matrix(40, 0, 0, 40, 0, 0)"/>
<path fill-rule="nonzero" fill="rgb(100%, 100%, 0%)" fill-opacity="1" stroke-width="0.05" stroke-linecap="butt" stroke-linejoin="miter" stroke="rgb(0%, 0%, 0%)" stroke-opacity="1" stroke-miterlimit="10" d="M 5 0 L 3 0 L 5 2 Z M 5 0 " transform="matrix(40, 0, 0, 40, 0, 0)"/>
<path fill-rule="nonzero" fill="rgb(0%, 100%, 100%)" fill-opacity="1" stroke-width="0.05" stroke-linecap="butt" stroke-linejoin="miter" stroke="rgb(0%, 0%, 0%)" stroke-opacity="1" stroke-miterlimit="10" d="M 6 0 L 5 0 L 5 2 L 6 3 Z M 6 0 " transform="matrix(40, 0, 0, 40, 0, 0)"/>
<path fill-rule="nonzero" fill="rgb(100%, 0%, 0%)" fill-opacity="1" stroke-width="0.05" stroke-linecap="butt" stroke-linejoin="miter" stroke="rgb(0%, 0%, 0%)" stroke-opacity="1" stroke-miterlimit="10" d="M 1 5 L 0 6 L 1 6 Z M 1 5 " transform="matrix(40, 0, 0, 40, 0, 0)"/>
<path fill-rule="nonzero" fill="rgb(0%, 100%, 0%)" fill-opacity="1" stroke-width="0.05" stroke-linecap="butt" stroke-linejoin="miter" stroke="rgb(0%, 0%, 0%)" stroke-opacity="1" stroke-miterlimit="10" d="M 2 4 L 1 5 L 1 6 L 2 6 Z M 2 4 " transform="matrix(40, 0, 0, 40, 0, 0)"/>
<path fill-rule="nonzero" fill="rgb(0%, 0%, 100%)" fill-opacity="1" stroke-width="0.05" stroke-linecap="butt" stroke-linejoin="miter" stroke="rgb(0%, 0%, 0%)" stroke-opacity="1" stroke-miterlimit="10" d="M 3 3 L 2 4 L 2 6 L 3 6 Z M 3 3 " transform="matrix(40, 0, 0, 40, 0, 0)"/>
<path fill-rule="nonzero" fill="rgb(100%, 100%, 0%)" fill-opacity="1" stroke-width="0.05" stroke-linecap="butt" stroke-linejoin="miter" stroke="rgb(0%, 0%, 0%)" stroke-opacity="1" stroke-miterlimit="10" d="M 1 3 L 0 3 L 0 6 L 1 5 Z M 1 3 " transform="matrix(40, 0, 0, 40, 0, 0)"/>
<path fill-rule="nonzero" fill="rgb(0%, 100%, 100%)" fill-opacity="1" stroke-width="0.05" stroke-linecap="butt" stroke-linejoin="miter" stroke="rgb(0%, 0%, 0%)" stroke-opacity="1" stroke-miterlimit="10" d="M 3 3 L 1 3 L 1 5 Z M 3 3 " transform="matrix(40, 0, 0, 40, 0, 0)"/>
<path fill-rule="nonzero" fill="rgb(100%, 0%, 0%)" fill-opacity="1" stroke-width="0.05" stroke-linecap="butt" stroke-linejoin="miter" stroke="rgb(0%, 0%, 0%)" stroke-opacity="1" stroke-miterlimit="10" d="M 5 4 L 3 6 L 5 6 Z M 5 4 " transform="matrix(40, 0, 0, 40, 0, 0)"/>
<path fill-rule="nonzero" fill="rgb(0%, 100%, 0%)" fill-opacity="1" stroke-width="0.05" stroke-linecap="butt" stroke-linejoin="miter" stroke="rgb(0%, 0%, 0%)" stroke-opacity="1" stroke-miterlimit="10" d="M 6 3 L 5 4 L 5 6 L 6 6 Z M 6 3 " transform="matrix(40, 0, 0, 40, 0, 0)"/>
<path fill-rule="nonzero" fill="rgb(0%, 0%, 100%)" fill-opacity="1" stroke-width="0.05" stroke-linecap="butt" stroke-linejoin="miter" stroke="rgb(0%, 0%, 0%)" stroke-opacity="1" stroke-miterlimit="10" d="M 4 3 L 3 3 L 3 6 L 4 5 Z M 4 3 " transform="matrix(40, 0, 0, 40, 0, 0)"/>
<path fill-rule="nonzero" fill="rgb(100%, 100%, 0%)" fill-opacity="1" stroke-width="0.05" stroke-linecap="butt" stroke-linejoin="miter" stroke="rgb(0%, 0%, 0%)" stroke-opacity="1" stroke-miterlimit="10" d="M 5 3 L 4 3 L 4 5 L 5 4 Z M 5 3 " transform="matrix(40, 0, 0, 40, 0, 0)"/>
<path fill-rule="nonzero" fill="rgb(0%, 100%, 100%)" fill-opacity="1" stroke-width="0.05" stroke-linecap="butt" stroke-linejoin="miter" stroke="rgb(0%, 0%, 0%)" stroke-opacity="1" stroke-miterlimit="10" d="M 6 3 L 5 3 L 5 4 Z M 6 3 " transform="matrix(40, 0, 0, 40, 0, 0)"/>
</svg>
